<svg width="48" height="48" viewBox="0 0 48 48" fill="none" xmlns="http://www.w3.org/2000/svg">
<path fill-rule="evenodd" clip-rule="evenodd" d="M19.0136 4.8356C19.094 4.35341 19.5112 4 20 4H28C28.4888 4 28.906 4.35341 28.9864 4.8356L29.8799 10.1966C31.0005 10.6745 32.0508 11.2847 33.0111 12.0074L38.1037 10.0995C38.5615 9.92801 39.0761 10.1126 39.3205 10.5359L43.3205 17.4642C43.565 17.8875 43.4675 18.4255 43.0901 18.7362L38.8921 22.1921C38.9634 22.7852 39 23.3885 39 24C39 24.6115 38.9633 25.2149 38.892 25.808L43.09 29.2639C43.4675 29.5746 43.5649 30.1126 43.3205 30.5359L39.3205 37.4641C39.0761 37.8875 38.5614 38.0721 38.1037 37.9006L33.011 35.9927C32.0507 36.7153 31.0005 37.3255 29.8799 37.8034L28.9864 43.1644C28.906 43.6466 28.4888 44 28 44H20C19.5112 44 19.094 43.6466 19.0136 43.1644L18.1201 37.8034C16.9994 37.3255 15.9492 36.7153 14.9888 35.9926L9.89629 37.9005C9.43852 38.072 8.92386 37.8874 8.67944 37.4641L4.67944 30.5359C4.43502 30.1125 4.53249 29.5745 4.90989 29.2638L9.10793 25.8079C9.03664 25.2148 8.99999 24.6115 8.99999 24C8.99999 23.3885 9.03664 22.7851 9.10794 22.192L4.90994 18.7361C4.53254 18.4254 4.43507 17.8874 4.67949 17.4641L8.67949 10.5358C8.92391 10.1125 9.43857 9.92791 9.89633 10.0994L14.989 12.0073C15.9493 11.2847 16.9995 10.6745 18.1201 10.1966L19.0136 4.8356ZM20.8471 6L20.0008 11.0782C19.9424 11.4285 19.7025 11.7217 19.3706 11.8482C18.0654 12.3457 16.8605 13.0478 15.7951 13.9158C15.5195 14.1403 15.1455 14.2017 14.8126 14.077L9.98797 12.2695L6.8351 17.7304L10.8113 21.0037C11.0852 21.2292 11.2191 21.583 11.1632 21.9334C11.0559 22.6058 11 23.296 11 24C11 24.7039 11.0558 25.3941 11.1632 26.0665C11.2191 26.4169 11.0852 26.7706 10.8113 26.9961L6.83505 30.2695L9.98793 35.7304L14.8125 33.923C15.1454 33.7983 15.5194 33.8596 15.795 34.0841C16.8604 34.9521 18.0654 35.6543 19.3706 36.1518C19.7025 36.2783 19.9424 36.5715 20.0008 36.9218L20.8471 42H27.1529L27.9992 36.9218C28.0576 36.5715 28.2975 36.2783 28.6294 36.1518C29.9346 35.6543 31.1395 34.9522 32.2049 34.0842C32.4805 33.8597 32.8545 33.7983 33.1873 33.923L38.012 35.7305L41.1649 30.2696L37.1887 26.9963C36.9148 26.7708 36.7809 26.417 36.8368 26.0666C36.9441 25.3941 37 24.7039 37 24C37 23.2961 36.9441 22.6059 36.8368 21.9335C36.7809 21.5831 36.9148 21.2294 37.1887 21.0039L41.1649 17.7305L38.0121 12.2696L33.1874 14.077C32.8546 14.2017 32.4806 14.1404 32.205 13.9159C31.1396 13.0479 29.9346 12.3457 28.6294 11.8482C28.2975 11.7217 28.0576 11.4285 27.9992 11.0782L27.1529 6H20.8471Z" fill="black" stroke="black" stroke-linejoin="round"/>
<path d="M24 16.75C28.0041 16.75 31.25 19.9959 31.25 24C31.25 28.0041 28.0041 31.25 24 31.25C19.9959 31.25 16.75 28.0041 16.75 24C16.75 19.9959 19.9959 16.75 24 16.75ZM24 19.25C21.3766 19.25 19.25 21.3766 19.25 24C19.25 26.6234 21.3766 28.75 24 28.75C26.6234 28.75 28.75 26.6234 28.75 24C28.75 21.3766 26.6234 19.25 24 19.25Z" fill="black" stroke="black" stroke-width="0.5"/>
</svg>
